<?xml version="1.0" standalone="yes"?>
<!-- SVG graphic -->
<svg xmlns='http://www.w3.org/2000/svg' xmlns:xlink='http://www.w3.org/1999/xlink'
 version="1.1">
<rect x="0" y="-1.52588e-05" width="6" height="200" stroke="black" stroke-width="1" fill="blue" tooltip="enable"><title>(0,90)</title></rect><rect x="6" y="17.7778" width="6" height="182.222" stroke="black" stroke-width="1" fill="blue" tooltip="enable"><title>(0.0298167,82)</title></rect><rect x="12" y="44.4444" width="6" height="155.556" stroke="black" stroke-width="1" fill="blue" tooltip="enable"><title>(0.0596334,70)</title></rect><rect x="18" y="95.5555" width="6" height="104.444" stroke="black" stroke-width="1" fill="blue" tooltip="enable"><title>(0.0894501,47)</title></rect><rect x="24" y="97.7778" width="6" height="102.222" stroke="black" stroke-width="1" fill="blue" tooltip="enable"><title>(0.119267,46)</title></rect><rect x="30" y="104.444" width="6" height="95.5556" stroke="black" stroke-width="1" fill="blue" tooltip="enable"><title>(0.149084,43)</title></rect><rect x="36" y="131.111" width="6" height="68.8889" stroke="black" stroke-width="1" fill="blue" tooltip="enable"><title>(0.1789,31)</title></rect><rect x="42" y="120" width="6" height="80" stroke="black" stroke-width="1" fill="blue" tooltip="enable"><title>(0.208717,36)</title></rect><rect x="48" y="137.778" width="6" height="62.2222" stroke="black" stroke-width="1" fill="blue" tooltip="enable"><title>(0.238534,28)</title></rect><rect x="54" y="166.667" width="6" height="33.3333" stroke="black" stroke-width="1" fill="blue" tooltip="enable"><title>(0.26835,15)</title></rect><rect x="60" y="142.222" width="6" height="57.7778" stroke="black" stroke-width="1" fill="blue" tooltip="enable"><title>(0.298167,26)</title></rect><rect x="66" y="135.556" width="6" height="64.4445" stroke="black" stroke-width="1" fill="blue" tooltip="enable"><title>(0.327984,29)</title></rect><rect x="72" y="166.667" width="6" height="33.3333" stroke="black" stroke-width="1" fill="blue" tooltip="enable"><title>(0.3578,15)</title></rect><rect x="78" y="155.556" width="6" height="44.4444" stroke="black" stroke-width="1" fill="blue" tooltip="enable"><title>(0.387617,20)</title></rect><rect x="84" y="162.222" width="6" height="37.7778" stroke="black" stroke-width="1" fill="blue" tooltip="enable"><title>(0.417434,17)</title></rect><rect x="90" y="155.556" width="6" height="44.4444" stroke="black" stroke-width="1" fill="blue" tooltip="enable"><title>(0.447251,20)</title></rect><rect x="96" y="168.889" width="6" height="31.1111" stroke="black" stroke-width="1" fill="blue" tooltip="enable"><title>(0.477067,14)</title></rect><rect x="102" y="155.556" width="6" height="44.4444" stroke="black" stroke-width="1" fill="blue" tooltip="enable"><title>(0.506884,20)</title></rect><rect x="108" y="162.222" width="6" height="37.7778" stroke="black" stroke-width="1" fill="blue" tooltip="enable"><title>(0.536701,17)</title></rect><rect x="114" y="171.111" width="6" height="28.8889" stroke="black" stroke-width="1" fill="blue" tooltip="enable"><title>(0.566517,13)</title></rect><rect x="120" y="175.556" width="6" height="24.4444" stroke="black" stroke-width="1" fill="blue" tooltip="enable"><title>(0.596334,11)</title></rect><rect x="126" y="175.556" width="6" height="24.4444" stroke="black" stroke-width="1" fill="blue" tooltip="enable"><title>(0.626151,11)</title></rect><rect x="132" y="168.889" width="6" height="31.1111" stroke="black" stroke-width="1" fill="blue" tooltip="enable"><title>(0.655967,14)</title></rect><rect x="138" y="173.333" width="6" height="26.6667" stroke="black" stroke-width="1" fill="blue" tooltip="enable"><title>(0.685784,12)</title></rect><rect x="144" y="162.222" width="6" height="37.7778" stroke="black" stroke-width="1" fill="blue" tooltip="enable"><title>(0.715601,17)</title></rect><rect x="150" y="177.778" width="6" height="22.2222" stroke="black" stroke-width="1" fill="blue" tooltip="enable"><title>(0.745418,10)</title></rect><rect x="156" y="171.111" width="6" height="28.8889" stroke="black" stroke-width="1" fill="blue" tooltip="enable"><title>(0.775234,13)</title></rect><rect x="162" y="182.222" width="6" height="17.7778" stroke="black" stroke-width="1" fill="blue" tooltip="enable"><title>(0.805051,8)</title></rect><rect x="168" y="184.444" width="6" height="15.5556" stroke="black" stroke-width="1" fill="blue" tooltip="enable"><title>(0.834868,7)</title></rect><rect x="174" y="191.111" width="6" height="8.88889" stroke="black" stroke-width="1" fill="blue" tooltip="enable"><title>(0.864684,4)</title></rect><rect x="180" y="188.889" width="6" height="11.1111" stroke="black" stroke-width="1" fill="blue" tooltip="enable"><title>(0.894501,5)</title></rect><rect x="186" y="188.889" width="6" height="11.1111" stroke="black" stroke-width="1" fill="blue" tooltip="enable"><title>(0.924318,5)</title></rect><rect x="192" y="175.556" width="6" height="24.4444" stroke="black" stroke-width="1" fill="blue" tooltip="enable"><title>(0.954135,11)</title></rect><rect x="198" y="184.444" width="6" height="15.5556" stroke="black" stroke-width="1" fill="blue" tooltip="enable"><title>(0.983951,7)</title></rect><rect x="204" y="173.333" width="6" height="26.6667" stroke="black" stroke-width="1" fill="blue" tooltip="enable"><title>(1.01377,12)</title></rect><rect x="210" y="188.889" width="6" height="11.1111" stroke="black" stroke-width="1" fill="blue" tooltip="enable"><title>(1.04358,5)</title></rect><rect x="216" y="195.556" width="6" height="4.44444" stroke="black" stroke-width="1" fill="blue" tooltip="enable"><title>(1.0734,2)</title></rect><rect x="222" y="191.111" width="6" height="8.88889" stroke="black" stroke-width="1" fill="blue" tooltip="enable"><title>(1.10322,4)</title></rect><rect x="228" y="195.556" width="6" height="4.44444" stroke="black" stroke-width="1" fill="blue" tooltip="enable"><title>(1.13303,2)</title></rect><rect x="234" y="182.222" width="6" height="17.7778" stroke="black" stroke-width="1" fill="blue" tooltip="enable"><title>(1.16285,8)</title></rect><rect x="240" y="200" width="6" height="0" stroke="black" stroke-width="1" fill="blue" tooltip="enable"><title>(1.19267,0)</title></rect><rect x="246" y="195.556" width="6" height="4.44444" stroke="black" stroke-width="1" fill="blue" tooltip="enable"><title>(1.22248,2)</title></rect><rect x="252" y="188.889" width="6" height="11.1111" stroke="black" stroke-width="1" fill="blue" tooltip="enable"><title>(1.2523,5)</title></rect><rect x="258" y="193.333" width="6" height="6.66667" stroke="black" stroke-width="1" fill="blue" tooltip="enable"><title>(1.28212,3)</title></rect><rect x="264" y="188.889" width="6" height="11.1111" stroke="black" stroke-width="1" fill="blue" tooltip="enable"><title>(1.31193,5)</title></rect><rect x="270" y="193.333" width="6" height="6.66667" stroke="black" stroke-width="1" fill="blue" tooltip="enable"><title>(1.34175,3)</title></rect><rect x="276" y="197.778" width="6" height="2.22222" stroke="black" stroke-width="1" fill="blue" tooltip="enable"><title>(1.37157,1)</title></rect><rect x="282" y="186.667" width="6" height="13.3333" stroke="black" stroke-width="1" fill="blue" tooltip="enable"><title>(1.40139,6)</title></rect><rect x="288" y="193.333" width="6" height="6.66667" stroke="black" stroke-width="1" fill="blue" tooltip="enable"><title>(1.4312,3)</title></rect><rect x="294" y="193.333" width="6" height="6.66667" stroke="black" stroke-width="1" fill="blue" tooltip="enable"><title>(1.46102,3)</title></rect><rect x="300" y="200" width="6" height="0" stroke="black" stroke-width="1" fill="blue" tooltip="enable"><title>(1.49084,0)</title></rect><rect x="306" y="195.556" width="6" height="4.44444" stroke="black" stroke-width="1" fill="blue" tooltip="enable"><title>(1.52065,2)</title></rect><rect x="312" y="195.556" width="6" height="4.44444" stroke="black" stroke-width="1" fill="blue" tooltip="enable"><title>(1.55047,2)</title></rect><rect x="318" y="197.778" width="6" height="2.22222" stroke="black" stroke-width="1" fill="blue" tooltip="enable"><title>(1.58029,1)</title></rect><rect x="324" y="197.778" width="6" height="2.22222" stroke="black" stroke-width="1" fill="blue" tooltip="enable"><title>(1.6101,1)</title></rect><rect x="330" y="195.556" width="6" height="4.44444" stroke="black" stroke-width="1" fill="blue" tooltip="enable"><title>(1.63992,2)</title></rect><rect x="336" y="197.778" width="6" height="2.22222" stroke="black" stroke-width="1" fill="blue" tooltip="enable"><title>(1.66974,1)</title></rect><rect x="342" y="195.556" width="6" height="4.44444" stroke="black" stroke-width="1" fill="blue" tooltip="enable"><title>(1.69955,2)</title></rect><rect x="348" y="200" width="6" height="0" stroke="black" stroke-width="1" fill="blue" tooltip="enable"><title>(1.72937,0)</title></rect><rect x="354" y="200" width="6" height="0" stroke="black" stroke-width="1" fill="blue" tooltip="enable"><title>(1.75919,0)</title></rect><rect x="360" y="200" width="6" height="0" stroke="black" stroke-width="1" fill="blue" tooltip="enable"><title>(1.789,0)</title></rect><rect x="366" y="193.333" width="6" height="6.66667" stroke="black" stroke-width="1" fill="blue" tooltip="enable"><title>(1.81882,3)</title></rect><rect x="372" y="193.333" width="6" height="6.66667" stroke="black" stroke-width="1" fill="blue" tooltip="enable"><title>(1.84864,3)</title></rect><rect x="378" y="195.556" width="6" height="4.44444" stroke="black" stroke-width="1" fill="blue" tooltip="enable"><title>(1.87845,2)</title></rect><rect x="384" y="197.778" width="6" height="2.22222" stroke="black" stroke-width="1" fill="blue" tooltip="enable"><title>(1.90827,1)</title></rect><rect x="390" y="200" width="6" height="0" stroke="black" stroke-width="1" fill="blue" tooltip="enable"><title>(1.93809,0)</title></rect><rect x="396" y="195.556" width="6" height="4.44444" stroke="black" stroke-width="1" fill="blue" tooltip="enable"><title>(1.9679,2)</title></rect><rect x="402" y="200" width="6" height="0" stroke="black" stroke-width="1" fill="blue" tooltip="enable"><title>(1.99772,0)</title></rect><rect x="408" y="200" width="6" height="0" stroke="black" stroke-width="1" fill="blue" tooltip="enable"><title>(2.02754,0)</title></rect><rect x="414" y="200" width="6" height="0" stroke="black" stroke-width="1" fill="blue" tooltip="enable"><title>(2.05735,0)</title></rect><rect x="420" y="200" width="6" height="0" stroke="black" stroke-width="1" fill="blue" tooltip="enable"><title>(2.08717,0)</title></rect><rect x="426" y="195.556" width="6" height="4.44444" stroke="black" stroke-width="1" fill="blue" tooltip="enable"><title>(2.11699,2)</title></rect><rect x="432" y="200" width="6" height="0" stroke="black" stroke-width="1" fill="blue" tooltip="enable"><title>(2.1468,0)</title></rect><rect x="438" y="200" width="6" height="0" stroke="black" stroke-width="1" fill="blue" tooltip="enable"><title>(2.17662,0)</title></rect><rect x="444" y="200" width="6" height="0" stroke="black" stroke-width="1" fill="blue" tooltip="enable"><title>(2.20644,0)</title></rect><rect x="450" y="200" width="6" height="0" stroke="black" stroke-width="1" fill="blue" tooltip="enable"><title>(2.23625,0)</title></rect><rect x="456" y="200" width="6" height="0" stroke="black" stroke-width="1" fill="blue" tooltip="enable"><title>(2.26607,0)</title></rect><rect x="462" y="200" width="6" height="0" stroke="black" stroke-width="1" fill="blue" tooltip="enable"><title>(2.29589,0)</title></rect><rect x="468" y="197.778" width="6" height="2.22222" stroke="black" stroke-width="1" fill="blue" tooltip="enable"><title>(2.3257,1)</title></rect><rect x="474" y="197.778" width="6" height="2.22222" stroke="black" stroke-width="1" fill="blue" tooltip="enable"><title>(2.35552,1)</title></rect><rect x="480" y="200" width="6" height="0" stroke="black" stroke-width="1" fill="blue" tooltip="enable"><title>(2.38534,0)</title></rect><rect x="486" y="200" width="6" height="0" stroke="black" stroke-width="1" fill="blue" tooltip="enable"><title>(2.41515,0)</title></rect><rect x="492" y="200" width="6" height="0" stroke="black" stroke-width="1" fill="blue" tooltip="enable"><title>(2.44497,0)</title></rect><rect x="498" y="197.778" width="6" height="2.22222" stroke="black" stroke-width="1" fill="blue" tooltip="enable"><title>(2.47479,1)</title></rect><rect x="504" y="197.778" width="6" height="2.22222" stroke="black" stroke-width="1" fill="blue" tooltip="enable"><title>(2.5046,1)</title></rect><rect x="510" y="200" width="6" height="0" stroke="black" stroke-width="1" fill="blue" tooltip="enable"><title>(2.53442,0)</title></rect><rect x="516" y="200" width="6" height="0" stroke="black" stroke-width="1" fill="blue" tooltip="enable"><title>(2.56424,0)</title></rect><rect x="522" y="200" width="6" height="0" stroke="black" stroke-width="1" fill="blue" tooltip="enable"><title>(2.59405,0)</title></rect><rect x="528" y="200" width="6" height="0" stroke="black" stroke-width="1" fill="blue" tooltip="enable"><title>(2.62387,0)</title></rect><rect x="534" y="200" width="6" height="0" stroke="black" stroke-width="1" fill="blue" tooltip="enable"><title>(2.65369,0)</title></rect><rect x="540" y="200" width="6" height="0" stroke="black" stroke-width="1" fill="blue" tooltip="enable"><title>(2.6835,0)</title></rect><rect x="546" y="200" width="6" height="0" stroke="black" stroke-width="1" fill="blue" tooltip="enable"><title>(2.71332,0)</title></rect><rect x="552" y="200" width="6" height="0" stroke="black" stroke-width="1" fill="blue" tooltip="enable"><title>(2.74314,0)</title></rect><rect x="558" y="200" width="6" height="0" stroke="black" stroke-width="1" fill="blue" tooltip="enable"><title>(2.77295,0)</title></rect><rect x="564" y="197.778" width="6" height="2.22222" stroke="black" stroke-width="1" fill="blue" tooltip="enable"><title>(2.80277,1)</title></rect><rect x="570" y="200" width="6" height="0" stroke="black" stroke-width="1" fill="blue" tooltip="enable"><title>(2.83259,0)</title></rect><rect x="576" y="200" width="6" height="0" stroke="black" stroke-width="1" fill="blue" tooltip="enable"><title>(2.8624,0)</title></rect><rect x="582" y="200" width="6" height="0" stroke="black" stroke-width="1" fill="blue" tooltip="enable"><title>(2.89222,0)</title></rect><rect x="588" y="200" width="6" height="0" stroke="black" stroke-width="1" fill="blue" tooltip="enable"><title>(2.92204,0)</title></rect><rect x="594" y="197.778" width="6" height="2.22222" stroke="black" stroke-width="1" fill="blue" tooltip="enable"><title>(2.95185,1)</title></rect><text x="30" y="240" font-size="20" fill="black">0</text>
<text x="600" y="240" font-size="20" fill="black">2.98167</text>
<polyline points="0,220,600,220" stroke="black" stroke-width="1" fill="none"/>
<text x="720" y="20" font-size="20" fill="black">90</text>
<text x="720" y="200" font-size="20" fill="black">0</text>
<polyline points="660,0,660,200" stroke="black" stroke-width="1" fill="none"/>
</svg>